{
  "accessors": [
    {
      "bufferView": 2,
      "componentType": 5126,
      "count": 62120,
      "max": [
        11.457603454589844,
        0.054262001067399979,
        8.9475927352905273
      ],
      "min": [
        -10.032650947570801,
        -19.906328201293945,
        -8.6092386245727539
      ],
      "type": "VEC3"
    },
    {
      "bufferView": 2,
      "byteOffset": 745440,
      "componentType": 5126,
      "count": 62120,
      "max": [
        0.99999797344207764,
        0.99999046325683594,
        0.99989253282546997
      ],
      "min": [
        -0.99421340227127075,
        -0.6672818660736084,
        -0.99842578172683716
      ],
      "type": "VEC3"
    },
    {
      "bufferView": 3,
      "componentType": 5126,
      "count": 62120,
      "max": [
        0.99255460500717163,
        0.72853779792785645,
        0.92903345823287964,
        1
      ],
      "min": [
        -0.93645095825195312,
        -0.99999874830245972,
        -0.78866291046142578,
        -1
      ],
      "type": "VEC4"
    },
    {
      "bufferView": 3,
      "byteOffset": 993920,
      "componentType": 5126,
      "count": 62120,
      "max": [
        0.75294101238250732,
        0.75294101238250732,
        0.75294101238250732,
        1
      ],
      "min": [
        0.75294101238250732,
        0.75294101238250732,
        0.75294101238250732,
        1
      ],
      "type": "VEC4"
    },
    {
      "bufferView": 1,
      "componentType": 5126,
      "count": 62120,
      "max": [
        0.63404500484466553,
        0.99801599979400635
      ],
      "min": [
        0.0021269998978823423,
        0.21324099600315094
      ],
      "type": "VEC2"
    },
    {
      "bufferView": 0,
      "componentType": 5125,
      "count": 367458,
      "max": [
        62119
      ],
      "min": [
        0
      ],
      "type": "SCALAR"
    },
    {
      "bufferView": 2,
      "byteOffset": 1490880,
      "componentType": 5126,
      "count": 56837,
      "max": [
        10.813747406005859,
        0.075730003416538239,
        9.7999820709228516
      ],
      "min": [
        -11.409646034240723,
        -19.953258514404297,
        -12.617494583129883
      ],
      "type": "VEC3"
    },
    {
      "bufferView": 2,
      "byteOffset": 2172924,
      "componentType": 5126,
      "count": 56837,
      "max": [
        0.99955213069915771,
        0.99999010562896729,
        0.99961036443710327
      ],
      "min": [
        -0.99998754262924194,
        -0.80003160238265991,
        -0.99998795986175537
      ],
      "type": "VEC3"
    },
    {
      "bufferView": 3,
      "byteOffset": 1987840,
      "componentType": 5126,
      "count": 56837,
      "max": [
        0.99913239479064941,
        0.93626314401626587,
        0.95654433965682983,
        1
      ],
      "min": [
        -0.99198925495147705,
        -0.99999809265136719,
        -0.99992936849594116,
        -1
      ],
      "type": "VEC4"
    },
    {
      "bufferView": 3,
      "byteOffset": 2897232,
      "componentType": 5126,
      "count": 56837,
      "max": [
        0.75294101238250732,
        0.75294101238250732,
        0.75294101238250732,
        1
      ],
      "min": [
        0.75294101238250732,
        0.75294101238250732,
        0.75294101238250732,
        1
      ],
      "type": "VEC4"
    },
    {
      "bufferView": 1,
      "byteOffset": 496960,
      "componentType": 5126,
      "count": 56837,
      "max": [
        0.97495400905609131,
        0.99799597263336182
      ],
      "min": [
        0.0020469999872148037,
        0.054659999907016754
      ],
      "type": "VEC2"
    },
    {
      "bufferView": 0,
      "byteOffset": 1469832,
      "componentType": 5125,
      "count": 335115,
      "max": [
        56836
      ],
      "min": [
        0
      ],
      "type": "SCALAR"
    },
    {
      "bufferView": 2,
      "byteOffset": 2854968,
      "componentType": 5126,
      "count": 40903,
      "max": [
        8.3840360641479492,
        -0.77335500717163086,
        10.188595771789551
      ],
      "min": [
        -11.718230247497559,
        -19.873683929443359,
        -12.602840423583984
      ],
      "type": "VEC3"
    },
    {
      "bufferView": 2,
      "byteOffset": 3345804,
      "componentType": 5126,
      "count": 40903,
      "max": [
        0.9785194993019104,
        0.99999046325683594,
        0.99998772144317627
      ],
      "min": [
        -0.99993586540222168,
        -0.80840277671813965,
        -0.99996364116668701
      ],
      "type": "VEC3"
    },
    {
      "bufferView": 3,
      "byteOffset": 3806624,
      "componentType": 5126,
      "count": 40903,
      "max": [
        0.94331884384155273,
        0.89461547136306763,
        0.98384231328964233,
        1
      ],
      "min": [
        -0.99993383884429932,
        -0.99999618530273438,
        -0.99830573797225952,
        -1
      ],
      "type": "VEC4"
    },
    {
      "bufferView": 3,
      "byteOffset": 4461072,
      "componentType": 5126,
      "count": 40903,
      "max": [
        0.75294101238250732,
        0.75294101238250732,
        0.75294101238250732,
        1
      ],
      "min": [
        0.75294101238250732,
        0.75294101238250732,
        0.75294101238250732,
        1
      ],
      "type": "VEC4"
    },
    {
      "bufferView": 1,
      "byteOffset": 951656,
      "componentType": 5126,
      "count": 40903,
      "max": [
        0.54616200923919678,
        0.88478899002075195
      ],
      "min": [
        0.0019789999350905418,
        0.13661499321460724
      ],
      "type": "VEC2"
    },
    {
      "bufferView": 0,
      "byteOffset": 2810292,
      "componentType": 5125,
      "count": 241782,
      "max": [
        40902
      ],
      "min": [
        0
      ],
      "type": "SCALAR"
    },
    {
      "bufferView": 2,
      "byteOffset": 3836640,
      "componentType": 5126,
      "count": 3,
      "max": [
        -1.016165018081665,
        -8.3918399810791016,
        -11.921225547790527
      ],
      "min": [
        -1.1061190366744995,
        -8.507084846496582,
        -12.048412322998047
      ],
      "type": "VEC3"
    },
    {
      "bufferView": 2,
      "byteOffset": 3836676,
      "componentType": 5126,
      "count": 3,
      "max": [
        0.13298721611499786,
        -0.72888368368148804,
        -0.66318631172180176
      ],
      "min": [
        0.060010839253664017,
        -0.74383765459060669,
        -0.67811101675033569
      ],
      "type": "VEC3"
    },
    {
      "bufferView": 3,
      "byteOffset": 5115520,
      "componentType": 5126,
      "count": 3,
      "max": [
        0,
        0,
        0,
        1
      ],
      "min": [
        0,
        0,
        0,
        1
      ],
      "type": "VEC4"
    },
    {
      "bufferView": 3,
      "byteOffset": 5115568,
      "componentType": 5126,
      "count": 3,
      "max": [
        0.75294101238250732,
        0.75294101238250732,
        0.75294101238250732,
        1
      ],
      "min": [
        0.75294101238250732,
        0.75294101238250732,
        0.75294101238250732,
        1
      ],
      "type": "VEC4"
    },
    {
      "bufferView": 0,
      "byteOffset": 3777420,
      "componentType": 5125,
      "count": 3,
      "max": [
        2
      ],
      "min": [
        0
      ],
      "type": "SCALAR"
    }
  ],
  "asset": {
    "generator": "Sketchfab (OSG glTF plugin)",
    "version": "2.0"
  },
  "bufferViews": [
    {
      "buffer": 0,
      "byteLength": 3777432,
      "byteOffset": 0,
      "name": "floatBufferViews",
      "target": 34963
    },
    {
      "buffer": 0,
      "byteLength": 1278880,
      "byteOffset": 3777432,
      "byteStride": 8,
      "name": "floatBufferViews",
      "target": 34962
    },
    {
      "buffer": 0,
      "byteLength": 3836712,
      "byteOffset": 5056312,
      "byteStride": 12,
      "name": "floatBufferViews",
      "target": 34962
    },
    {
      "buffer": 0,
      "byteLength": 5115616,
      "byteOffset": 8893024,
      "byteStride": 16,
      "name": "floatBufferViews",
      "target": 34962
    }
  ],
  "buffers": [
    {
      "byteLength": 14008640,
      "uri": "scene.bin"
    }
  ],
  "images": [
    {
      "uri": "textures/material_2_baseColor.jpeg"
    },
    {
      "uri": "textures/material_0_baseColor.jpeg"
    },
    {
      "uri": "textures/material_1_baseColor.jpeg"
    }
  ],
  "materials": [
    {
      "doubleSided": true,
      "emissiveFactor": [
        0,
        0,
        0
      ],
      "name": "material_0",
      "pbrMetallicRoughness": {
        "baseColorFactor": [
          1,
          1,
          1,
          1
        ],
        "baseColorTexture": {
          "index": 1,
          "texCoord": 0
        },
        "metallicFactor": 0,
        "roughnessFactor": 0.75
      }
    },
    {
      "doubleSided": true,
      "emissiveFactor": [
        0,
        0,
        0
      ],
      "name": "material_1",
      "pbrMetallicRoughness": {
        "baseColorFactor": [
          1,
          1,
          1,
          1
        ],
        "baseColorTexture": {
          "index": 2,
          "texCoord": 0
        },
        "metallicFactor": 0,
        "roughnessFactor": 0.60999999999999999
      }
    },
    {
      "doubleSided": true,
      "emissiveFactor": [
        0,
        0,
        0
      ],
      "name": "material_2",
      "pbrMetallicRoughness": {
        "baseColorFactor": [
          1,
          1,
          1,
          1
        ],
        "baseColorTexture": {
          "index": 0,
          "texCoord": 0
        },
        "metallicFactor": 0,
        "roughnessFactor": 0.34999999999999998
      }
    },
    {
      "doubleSided": true,
      "emissiveFactor": [
        0,
        0,
        0
      ],
      "name": "material_3",
      "pbrMetallicRoughness": {
        "baseColorFactor": [
          1,
          1,
          1,
          1
        ],
        "metallicFactor": 0,
        "roughnessFactor": 0.20000000000000001
      }
    }
  ],
  "meshes": [
    {
      "primitives": [
        {
          "attributes": {
            "COLOR_0": 3,
            "NORMAL": 1,
            "POSITION": 0,
            "TANGENT": 2,
            "TEXCOORD_0": 4
          },
          "indices": 5,
          "material": 0,
          "mode": 4
        }
      ]
    },
    {
      "primitives": [
        {
          "attributes": {
            "COLOR_0": 9,
            "NORMAL": 7,
            "POSITION": 6,
            "TANGENT": 8,
            "TEXCOORD_0": 10
          },
          "indices": 11,
          "material": 1,
          "mode": 4
        }
      ]
    },
    {
      "primitives": [
        {
          "attributes": {
            "COLOR_0": 15,
            "NORMAL": 13,
            "POSITION": 12,
            "TANGENT": 14,
            "TEXCOORD_0": 16
          },
          "indices": 17,
          "material": 2,
          "mode": 4
        }
      ]
    },
    {
      "primitives": [
        {
          "attributes": {
            "COLOR_0": 21,
            "NORMAL": 19,
            "POSITION": 18,
            "TANGENT": 20
          },
          "indices": 22,
          "material": 3,
          "mode": 4
        }
      ]
    }
  ],
  "nodes": [
    {
      "children": [
        1
      ],
      "name": "RootNode (gltf orientation matrix)",
      "rotation": [
        -0.70710678118654746,
        -0,
        -0,
        0.70710678118654757
      ]
    },
    {
      "children": [
        2
      ],
      "matrix": [
        1,
        0,
        0,
        0,
        0,
        0,
        1,
        0,
        0,
        -1,
        0,
        0,
        0,
        -11.34752082824707,
        8.5300083160400391,
        1
      ],
      "name": "RootNode (model correction matrix)"
    },
    {
      "children": [
        3
      ],
      "name": "mesh.obj.cleaner.gles"
    },
    {
      "children": [
        4,
        5,
        6,
        7
      ],
      "name": "Geode"
    },
    {
      "mesh": 0,
      "name": ""
    },
    {
      "mesh": 1,
      "name": ""
    },
    {
      "mesh": 2,
      "name": ""
    },
    {
      "mesh": 3,
      "name": ""
    }
  ],
  "samplers": [
    {
      "magFilter": 9729,
      "minFilter": 9987,
      "wrapS": 10497,
      "wrapT": 10497
    }
  ],
  "scene": 0,
  "scenes": [
    {
      "name": "OSG_Scene",
      "nodes": [
        0
      ]
    }
  ],
  "textures": [
    {
      "sampler": 0,
      "source": 0
    },
    {
      "sampler": 0,
      "source": 1
    },
    {
      "sampler": 0,
      "source": 2
    }
  ]
}

